{
  "accessors": [
    {
      "bufferView": 2,
      "componentType": 5126,
      "count": 2056,
      "max": [
        3.1753299236297607,
        5.981836795806885,
        12.300396919250488
      ],
      "min": [
        -3.175339937210083,
        -7.940982818603516,
        -0.0849120020866394
      ],
      "type": "VEC3"
    },
    {
      "bufferView": 2,
      "byteOffset": 24672,
      "componentType": 5126,
      "count": 2056,
      "max": [
        0.999933123588562,
        0.9985346794128418,
        0.9999994039535522
      ],
      "min": [
        -0.9999330043792725,
        -0.9992944002151489,
        -1.0
      ],
      "type": "VEC3"
    },
    {
      "bufferView": 1,
      "componentType": 5126,
      "count": 2056,
      "max": [
        0.9921879768371582,
        0.9921910166740417
      ],
      "min": [
        -0.9916989803314209,
        0.0078119998797774315
      ],
      "type": "VEC2"
    },
    {
      "bufferView": 0,
      "componentType": 5125,
      "count": 8580,
      "type": "SCALAR"
    }
  ],
  "asset": {
    "extras": {
      "author": "VnSkills Academy (https://sketchfab.com/vnsacademy)",
      "license": "CC-BY-4.0 (http://creativecommons.org/licenses/by/4.0/)",
      "source": "https://sketchfab.com/3d-models/lap-trinh-web-la-gi-hoc-lap-trinh-web-f33ca304621047b7b76dee9e5afb1920",
      "title": "Lập trình web là gì? Học lập trình web"
    },
    "generator": "Sketchfab-14.56.0",
    "version": "2.0"
  },
  "bufferViews": [
    {
      "buffer": 0,
      "byteLength": 34320,
      "name": "floatBufferViews",
      "target": 34963
    },
    {
      "buffer": 0,
      "byteLength": 16448,
      "byteOffset": 34320,
      "byteStride": 8,
      "name": "floatBufferViews",
      "target": 34962
    },
    {
      "buffer": 0,
      "byteLength": 49344,
      "byteOffset": 50768,
      "byteStride": 12,
      "name": "floatBufferViews",
      "target": 34962
    }
  ],
  "buffers": [
    {
      "byteLength": 100112,
      "uri": "scene.bin"
    }
  ],
  "images": [
    {
      "uri": "textures/TopN_baseColor.png"
    }
  ],
  "materials": [
    {
      "doubleSided": true,
      "name": "TopN",
      "pbrMetallicRoughness": {
        "baseColorTexture": {
          "index": 0
        },
        "metallicFactor": 0.0
      }
    }
  ],
  "meshes": [
    {
      "name": "Object_0",
      "primitives": [
        {
          "attributes": {
            "NORMAL": 1,
            "POSITION": 0,
            "TEXCOORD_0": 2
          },
          "indices": 3,
          "material": 0,
          "mode": 4
        }
      ]
    }
  ],
  "nodes": [
    {
      "children": [
        1
      ],
      "matrix": [
        1.0,
        0.0,
        0.0,
        0.0,
        0.0,
        2.220446049250313e-16,
        -1.0,
        0.0,
        0.0,
        1.0,
        2.220446049250313e-16,
        0.0,
        0.0,
        0.0,
        0.0,
        1.0
      ],
      "name": "Sketchfab_model"
    },
    {
      "children": [
        2
      ],
      "name": "french_bulldog.obj.cleaner.materialmerger.gles"
    },
    {
      "mesh": 0,
      "name": "Object_2"
    }
  ],
  "samplers": [
    {
      "magFilter": 9729,
      "minFilter": 9987,
      "wrapS": 10497,
      "wrapT": 10497
    }
  ],
  "scene": 0,
  "scenes": [
    {
      "name": "Sketchfab_Scene",
      "nodes": [
        0
      ]
    }
  ],
  "textures": [
    {
      "sampler": 0,
      "source": 0
    }
  ]
}
