{
  "accessors": [
    {
      "bufferView": 2,
      "componentType": 5126,
      "count": 2456,
      "max": [
        31.268308639526367,
        0.014227000065147877,
        16.89177703857422
      ],
      "min": [
        -100.98904418945313,
        -105.8777084350586,
        -16.89177703857422
      ],
      "type": "VEC3"
    },
    {
      "bufferView": 2,
      "byteOffset": 29472,
      "componentType": 5126,
      "count": 2456,
      "max": [
        0.9998672604560852,
        0.9999691247940063,
        1.0
      ],
      "min": [
        -0.9998688101768494,
        -0.9968900680541992,
        -1.0
      ],
      "type": "VEC3"
    },
    {
      "bufferView": 1,
      "componentType": 5126,
      "count": 2456,
      "max": [
        0.9985349774360657,
        0.9925159811973572
      ],
      "min": [
        0.00482900021597743,
        0.0034179999493062496
      ],
      "type": "VEC2"
    },
    {
      "bufferView": 1,
      "byteOffset": 19648,
      "componentType": 5126,
      "count": 2456,
      "max": [
        0.9985349774360657,
        0.9925159811973572
      ],
      "min": [
        0.00482900021597743,
        0.0034179999493062496
      ],
      "type": "VEC2"
    },
    {
      "bufferView": 0,
      "componentType": 5125,
      "count": 12216,
      "type": "SCALAR"
    },
    {
      "bufferView": 2,
      "byteOffset": 58944,
      "componentType": 5126,
      "count": 742,
      "max": [
        26.371965408325195,
        -75.2318344116211,
        4.324881076812744
      ],
      "min": [
        8.493003845214844,
        -82.6732406616211,
        -4.290143966674805
      ],
      "type": "VEC3"
    },
    {
      "bufferView": 2,
      "byteOffset": 67848,
      "componentType": 5126,
      "count": 742,
      "max": [
        0.9957338571548462,
        0.9969263672828674,
        0.9991185069084167
      ],
      "min": [
        -0.9622644186019897,
        -0.9958279132843018,
        -0.9963074326515198
      ],
      "type": "VEC3"
    },
    {
      "bufferView": 1,
      "byteOffset": 39296,
      "componentType": 5126,
      "count": 742,
      "max": [
        0.9897459745407104,
        0.9667969942092896
      ],
      "min": [
        0.0011690000537782907,
        0.40087899565696716
      ],
      "type": "VEC2"
    },
    {
      "bufferView": 1,
      "byteOffset": 45232,
      "componentType": 5126,
      "count": 742,
      "max": [
        0.9897459745407104,
        0.9667969942092896
      ],
      "min": [
        0.0011690000537782907,
        0.40087899565696716
      ],
      "type": "VEC2"
    },
    {
      "bufferView": 0,
      "byteOffset": 48864,
      "componentType": 5125,
      "count": 2454,
      "type": "SCALAR"
    },
    {
      "bufferView": 2,
      "byteOffset": 76752,
      "componentType": 5126,
      "count": 878,
      "max": [
        28.97721290588379,
        -78.37165832519531,
        3.6755270957946777
      ],
      "min": [
        19.63189697265625,
        -81.54322814941406,
        -3.7222509384155273
      ],
      "type": "VEC3"
    },
    {
      "bufferView": 2,
      "byteOffset": 87288,
      "componentType": 5126,
      "count": 878,
      "max": [
        0.9494887590408325,
        0.9983981847763062,
        0.9974709749221802
      ],
      "min": [
        -0.9980219602584839,
        -0.43131178617477417,
        -0.9969187378883362
      ],
      "type": "VEC3"
    },
    {
      "bufferView": 1,
      "byteOffset": 51168,
      "componentType": 5126,
      "count": 878,
      "max": [
        0.9833980202674866,
        0.9967020153999329
      ],
      "min": [
        0.27270498871803284,
        0.8478999733924866
      ],
      "type": "VEC2"
    },
    {
      "bufferView": 1,
      "byteOffset": 58192,
      "componentType": 5126,
      "count": 878,
      "max": [
        0.9833980202674866,
        0.9967020153999329
      ],
      "min": [
        0.27270498871803284,
        0.8478999733924866
      ],
      "type": "VEC2"
    },
    {
      "bufferView": 0,
      "byteOffset": 58680,
      "componentType": 5125,
      "count": 1410,
      "type": "SCALAR"
    },
    {
      "bufferView": 2,
      "byteOffset": 97824,
      "componentType": 5126,
      "count": 1659,
      "max": [
        20.690975189208984,
        -2.262010097503662,
        17.15068817138672
      ],
      "min": [
        -103.15986633300781,
        -101.49208068847656,
        -17.15068817138672
      ],
      "type": "VEC3"
    },
    {
      "bufferView": 2,
      "byteOffset": 117732,
      "componentType": 5126,
      "count": 1659,
      "max": [
        0.9998047947883606,
        0.9951151013374329,
        0.999929666519165
      ],
      "min": [
        -0.9939301609992981,
        -0.998006284236908,
        -0.9980295896530151
      ],
      "type": "VEC3"
    },
    {
      "bufferView": 1,
      "byteOffset": 65216,
      "componentType": 5126,
      "count": 1659,
      "max": [
        1.0029300451278687,
        1.0623470544815063
      ],
      "min": [
        -0.05432099848985672,
        -0.00976600032299757
      ],
      "type": "VEC2"
    },
    {
      "bufferView": 1,
      "byteOffset": 78488,
      "componentType": 5126,
      "count": 1659,
      "max": [
        1.0029300451278687,
        1.0623470544815063
      ],
      "min": [
        -0.05432099848985672,
        -0.00976600032299757
      ],
      "type": "VEC2"
    },
    {
      "bufferView": 0,
      "byteOffset": 64320,
      "componentType": 5125,
      "count": 5289,
      "type": "SCALAR"
    }
  ],
  "asset": {
    "extras": {
      "author": "victorberdugo1 (https://sketchfab.com/victorberdugo1)",
      "license": "CC-BY-4.0 (http://creativecommons.org/licenses/by/4.0/)",
      "source": "https://sketchfab.com/3d-models/german-shepherd-0afaa58daa2746acb1060045879c342c",
      "title": "German Shepherd"
    },
    "generator": "Sketchfab-16.8.0",
    "version": "2.0"
  },
  "bufferViews": [
    {
      "buffer": 0,
      "byteLength": 85476,
      "name": "floatBufferViews",
      "target": 34963
    },
    {
      "buffer": 0,
      "byteLength": 91760,
      "byteOffset": 85476,
      "byteStride": 8,
      "name": "floatBufferViews",
      "target": 34962
    },
    {
      "buffer": 0,
      "byteLength": 137640,
      "byteOffset": 177236,
      "byteStride": 12,
      "name": "floatBufferViews",
      "target": 34962
    }
  ],
  "buffers": [
    {
      "byteLength": 314876,
      "uri": "scene.bin"
    }
  ],
  "images": [
    {
      "uri": "textures/Material_34_baseColor.png"
    },
    {
      "uri": "textures/Material_37_baseColor.png"
    }
  ],
  "materials": [
    {
      "doubleSided": true,
      "name": "Material_34",
      "pbrMetallicRoughness": {
        "baseColorTexture": {
          "index": 0
        },
        "metallicFactor": 0.0,
        "roughnessFactor": 0.8929713596497552
      }
    },
    {
      "alphaMode": "BLEND",
      "doubleSided": true,
      "name": "Material_37",
      "pbrMetallicRoughness": {
        "baseColorTexture": {
          "index": 1
        },
        "metallicFactor": 0.0,
        "roughnessFactor": 0.8929713596497552
      }
    }
  ],
  "meshes": [
    {
      "name": "TomGroup_0_Material #34_0",
      "primitives": [
        {
          "attributes": {
            "NORMAL": 1,
            "POSITION": 0,
            "TEXCOORD_0": 2,
            "TEXCOORD_1": 3
          },
          "indices": 4,
          "material": 0,
          "mode": 4
        }
      ]
    },
    {
      "name": "TomGroup_1_Material #34_0",
      "primitives": [
        {
          "attributes": {
            "NORMAL": 6,
            "POSITION": 5,
            "TEXCOORD_0": 7,
            "TEXCOORD_1": 8
          },
          "indices": 9,
          "material": 0,
          "mode": 4
        }
      ]
    },
    {
      "name": "TomGroup_2_Material #34_0",
      "primitives": [
        {
          "attributes": {
            "NORMAL": 11,
            "POSITION": 10,
            "TEXCOORD_0": 12,
            "TEXCOORD_1": 13
          },
          "indices": 14,
          "material": 0,
          "mode": 4
        }
      ]
    },
    {
      "name": "TomGroup_3_Material #37_0",
      "primitives": [
        {
          "attributes": {
            "NORMAL": 16,
            "POSITION": 15,
            "TEXCOORD_0": 17,
            "TEXCOORD_1": 18
          },
          "indices": 19,
          "material": 1,
          "mode": 4
        }
      ]
    }
  ],
  "nodes": [
    {
      "children": [
        1
      ],
      "matrix": [
        1.0,
        0.0,
        0.0,
        0.0,
        0.0,
        2.220446049250313e-16,
        -1.0,
        0.0,
        0.0,
        1.0,
        2.220446049250313e-16,
        0.0,
        0.0,
        0.0,
        0.0,
        1.0
      ],
      "name": "Sketchfab_model"
    },
    {
      "children": [
        2
      ],
      "matrix": [
        0.02539999969303608,
        0.0,
        0.0,
        0.0,
        0.0,
        0.0,
        0.02539999969303608,
        0.0,
        0.0,
        -0.02539999969303608,
        0.0,
        0.0,
        0.0,
        0.0,
        0.0,
        1.0
      ],
      "name": "german shepherd.FBX"
    },
    {
      "children": [
        3,
        6,
        9,
        12
      ],
      "name": "RootNode"
    },
    {
      "children": [
        4
      ],
      "matrix": [
        1.0,
        0.0,
        0.0,
        0.0,
        0.0,
        2.220446049250313e-16,
        -1.0,
        0.0,
        0.0,
        1.0,
        2.220446049250313e-16,
        0.0,
        1.7403106689453125,
        52.931739807128906,
        -0.2663288116455078,
        1.0
      ],
      "name": "TomGroup_0"
    },
    {
      "children": [
        5
      ],
      "matrix": [
        1.0,
        0.0,
        0.0,
        0.0,
        0.0,
        6.123233995736766e-17,
        -1.0,
        0.0,
        -0.0,
        1.0,
        6.123233995736766e-17,
        0.0,
        34.86036682128906,
        0.0,
        -52.931739807128906,
        1.0
      ],
      "name": "Object_4"
    },
    {
      "mesh": 0,
      "name": "TomGroup_0_Material #34_0"
    },
    {
      "children": [
        7
      ],
      "matrix": [
        1.0,
        0.0,
        0.0,
        0.0,
        0.0,
        2.220446049250313e-16,
        -1.0,
        0.0,
        0.0,
        1.0,
        2.220446049250313e-16,
        0.0,
        54.03316116333008,
        78.9525375366211,
        -0.28369903564453125,
        1.0
      ],
      "name": "TomGroup_1"
    },
    {
      "children": [
        8
      ],
      "matrix": [
        1.0,
        0.0,
        0.0,
        0.0,
        0.0,
        6.123233995736766e-17,
        -1.0,
        0.0,
        -0.0,
        1.0,
        6.123233995736766e-17,
        0.0,
        -17.432483673095703,
        -0.01737213134765625,
        -78.9525375366211,
        1.0
      ],
      "name": "Object_7"
    },
    {
      "mesh": 1,
      "name": "TomGroup_1_Material #34_0"
    },
    {
      "children": [
        10
      ],
      "matrix": [
        1.0,
        0.0,
        0.0,
        0.0,
        0.0,
        2.220446049250313e-16,
        -1.0,
        0.0,
        0.0,
        1.0,
        2.220446049250313e-16,
        0.0,
        60.90523147583008,
        79.95744323730469,
        -0.24296855926513672,
        1.0
      ],
      "name": "TomGroup_2"
    },
    {
      "children": [
        11
      ],
      "matrix": [
        1.0,
        0.0,
        0.0,
        0.0,
        0.0,
        6.123233995736766e-17,
        -1.0,
        0.0,
        -0.0,
        1.0,
        6.123233995736766e-17,
        0.0,
        -24.304553985595703,
        0.0233612060546875,
        -79.95744323730469,
        1.0
      ],
      "name": "Object_10"
    },
    {
      "mesh": 2,
      "name": "TomGroup_2_Material #34_0"
    },
    {
      "children": [
        13
      ],
      "matrix": [
        1.0,
        0.0,
        0.0,
        0.0,
        0.0,
        2.220446049250313e-16,
        -1.0,
        0.0,
        0.0,
        1.0,
        2.220446049250313e-16,
        0.0,
        -4.633766174316406,
        51.877044677734375,
        -0.2663288116455078,
        1.0
      ],
      "name": "TomGroup_3"
    },
    {
      "children": [
        14
      ],
      "matrix": [
        1.0,
        0.0,
        0.0,
        0.0,
        0.0,
        6.123233995736766e-17,
        -1.0,
        0.0,
        -0.0,
        1.0,
        6.123233995736766e-17,
        0.0,
        41.23444366455078,
        0.0,
        -51.877044677734375,
        1.0
      ],
      "name": "Object_13"
    },
    {
      "mesh": 3,
      "name": "TomGroup_3_Material #37_0"
    }
  ],
  "samplers": [
    {
      "magFilter": 9729,
      "minFilter": 9987,
      "wrapS": 10497,
      "wrapT": 10497
    }
  ],
  "scene": 0,
  "scenes": [
    {
      "name": "Sketchfab_Scene",
      "nodes": [
        0
      ]
    }
  ],
  "textures": [
    {
      "sampler": 0,
      "source": 0
    },
    {
      "sampler": 0,
      "source": 1
    }
  ]
}
